<?xml version="1.0" encoding="UTF-8" standalone="no"?>
<!-- Created with Inkscape (http://www.inkscape.org/) -->

<svg
   xmlns:osb="http://www.openswatchbook.org/uri/2009/osb"
   xmlns:dc="http://purl.org/dc/elements/1.1/"
   xmlns:cc="http://creativecommons.org/ns#"
   xmlns:rdf="http://www.w3.org/1999/02/22-rdf-syntax-ns#"
   xmlns:svg="http://www.w3.org/2000/svg"
   xmlns="http://www.w3.org/2000/svg"
   xmlns:sodipodi="http://sodipodi.sourceforge.net/DTD/sodipodi-0.dtd"
   xmlns:inkscape="http://www.inkscape.org/namespaces/inkscape"
   width="290"
   height="290"
   viewBox="0 0 290 290"
   version="1.1"
   id="SVGRoot"
   inkscape:version="0.92.2 5c3e80d, 2017-08-06"
   sodipodi:docname="reversearrow@2x.svg">
  <sodipodi:namedview
     id="base"
     pagecolor="#ffffff"
     bordercolor="#666666"
     borderopacity="1.0"
     inkscape:pageopacity="0.0"
     inkscape:pageshadow="2"
     inkscape:zoom="1.4660681"
     inkscape:cx="171.40569"
     inkscape:cy="133.91922"
     inkscape:document-units="px"
     inkscape:current-layer="layer1"
     showgrid="false"
     inkscape:window-width="1920"
     inkscape:window-height="1052"
     inkscape:window-x="0"
     inkscape:window-y="28"
     inkscape:window-maximized="1"
     inkscape:pagecheckerboard="true"
     showguides="false" />
  <defs
     id="defs3680">
    <linearGradient
       id="linearGradient6995"
       osb:paint="solid">
      <stop
         style="stop-color:#000000;stop-opacity:1;"
         offset="0"
         id="stop6993" />
    </linearGradient>
    <marker
       inkscape:stockid="Arrow1Lstart"
       orient="auto"
       refY="0"
       refX="0"
       id="Arrow1Lstart"
       style="overflow:visible"
       inkscape:isstock="true">
      <path
         id="path4509"
         d="M 0,0 5,-5 -12.5,0 5,5 Z"
         style="fill:#000000;fill-opacity:1;fill-rule:evenodd;stroke:#000000;stroke-width:1.00000003pt;stroke-opacity:1"
         transform="matrix(0.8,0,0,0.8,10,0)"
         inkscape:connector-curvature="0" />
    </marker>
    <filter
       inkscape:collect="always"
       style="color-interpolation-filters:sRGB"
       id="filter5736"
       x="-0.1176"
       width="1.2651999999999999"
       y="-0.1276"
       height="1.3">
      <feGaussianBlur
         inkscape:collect="always"
         stdDeviation="6.21"
         id="feGaussianBlur5738" />
    </filter>
  </defs>
  <metadata
     id="metadata3683">
    <rdf:RDF>
      <cc:Work
         rdf:about="">
        <dc:format>image/svg+xml</dc:format>
        <dc:type
           rdf:resource="http://purl.org/dc/dcmitype/StillImage" />
        <dc:title></dc:title>
      </cc:Work>
    </rdf:RDF>
  </metadata>
  <g
     inkscape:groupmode="layer"
     id="layer2"
     inkscape:label="bg"
     transform="translate(0,-7)" />
  <g
     id="layer1"
     inkscape:groupmode="layer"
     inkscape:label="レイヤー 1"
     transform="translate(0,-7)">
    <g
       id="g1006">
      <path
         sodipodi:nodetypes="cccsscsccsccsscsssssscsccssssccccc"
         inkscape:connector-curvature="0"
         id="path969"
         d="m 143.9518,271.65987 c -0.24849,-0.22572 -4.97141,-0.6963 -10.49537,-1.04573 -5.52396,-0.34944 -11.45259,-1.03945 -13.17472,-1.53335 -1.72214,-0.4939 -3.39004,-0.63913 -3.70644,-0.32273 C 116.25887,269.07446 116,268.73333 116,268 c 0,-0.73333 -0.24621,-1.08712 -0.54714,-0.7862 -1.83314,1.83315 -26.747444,-9.15067 -37.577854,-16.56672 C 65.172579,241.94918 53.134247,229.83216 45.759564,218.32171 37.17408,206.17824 33.030559,194.23879 29.561272,181.5 24.727813,163.78021 24.342652,143.24938 28.510704,125.5 31.431498,113.06199 38.184411,97.080799 44.60974,87.400632 52.216134,75.736408 62.846426,63.915796 72.386693,57.124757 83.033874,49.934516 87.634107,46.955567 89,46.366565 c 0.825,-0.355758 4.685165,-2.128149 8.578145,-3.938648 12.097865,-5.626325 30.654465,-9.525262 45.364715,-9.531609 8.25587,-0.0036 8.65227,0.10248 11.25907,3.011977 2.95084,3.293483 2.9883,4.305262 0.7742,20.914074 C 154.43926,60.849657 154,64.326783 154,64.549307 c 0,1.528713 -5.85002,3.645917 -11.16567,4.04101 -9.87544,0.734007 -18.72128,2.465038 -26.1515,5.117554 -6.68642,2.386989 -17.894158,8.388815 -20.504259,10.980184 -0.726785,0.72157 -1.626785,1.314095 -2,1.316723 -0.953275,0.0067 -6.8169,5.60003 -12.431524,11.858445 -8.46087,9.431027 -16.979576,26.705397 -18.261273,37.030517 -1.752441,9.65084 -2.293273,19.8658 -0.949095,29.60626 1.306804,8.27909 4.443516,17.65655 8.539512,25.52957 2.328392,4.47547 4.726272,8.66218 5.328623,9.30382 0.60235,0.64164 2.430477,2.96661 4.062503,5.16661 11.668986,15.72999 34.488133,28.19635 54.951863,30.02083 12.18868,1.0867 14.64704,1.63604 16.9745,3.79305 1.29737,1.20237 2.34227,2.41112 2.322,2.68612 -0.0786,1.0668 1.42038,16.66911 1.89238,19.69675 0.58137,3.72909 -1.75893,8.92842 -4.34709,9.65772 -3.70317,1.0435 -7.87582,1.69903 -8.30917,1.3054 z"
         style="fill:#ffffff;fill-opacity:1" />
      <circle
         r="16.255976"
         cy="152"
         cx="145"
         id="path995"
         style="opacity:1;fill:none;fill-opacity:0.31629393;stroke:#ffffff;stroke-width:9;stroke-linecap:butt;stroke-linejoin:round;stroke-miterlimit:4;stroke-dasharray:none;stroke-dashoffset:0;stroke-opacity:1;paint-order:normal" />
    </g>
    <g
       id="g1012"
       style="filter:url(#filter5736)">
      <path
         style="fill:#ffffff;fill-opacity:1"
         d="m 143.9518,271.65987 c -0.24849,-0.22572 -4.97141,-0.6963 -10.49537,-1.04573 -5.52396,-0.34944 -11.45259,-1.03945 -13.17472,-1.53335 -1.72214,-0.4939 -3.39004,-0.63913 -3.70644,-0.32273 C 116.25887,269.07446 116,268.73333 116,268 c 0,-0.73333 -0.24621,-1.08712 -0.54714,-0.7862 -1.83314,1.83315 -26.747444,-9.15067 -37.577854,-16.56672 C 65.172579,241.94918 53.134247,229.83216 45.759564,218.32171 37.17408,206.17824 33.030559,194.23879 29.561272,181.5 24.727813,163.78021 24.342652,143.24938 28.510704,125.5 31.431498,113.06199 38.184411,97.080799 44.60974,87.400632 52.216134,75.736408 62.846426,63.915796 72.386693,57.124757 83.033874,49.934516 87.634107,46.955567 89,46.366565 c 0.825,-0.355758 4.685165,-2.128149 8.578145,-3.938648 12.097865,-5.626325 30.654465,-9.525262 45.364715,-9.531609 8.25587,-0.0036 8.65227,0.10248 11.25907,3.011977 2.95084,3.293483 2.9883,4.305262 0.7742,20.914074 C 154.43926,60.849657 154,64.326783 154,64.549307 c 0,1.528713 -5.85002,3.645917 -11.16567,4.04101 -9.87544,0.734007 -18.72128,2.465038 -26.1515,5.117554 -6.68642,2.386989 -17.894158,8.388815 -20.504259,10.980184 -0.726785,0.72157 -1.626785,1.314095 -2,1.316723 -0.953275,0.0067 -6.8169,5.60003 -12.431524,11.858445 -8.46087,9.431027 -16.979576,26.705397 -18.261273,37.030517 -1.752441,9.65084 -2.293273,19.8658 -0.949095,29.60626 1.306804,8.27909 4.443516,17.65655 8.539512,25.52957 2.328392,4.47547 4.726272,8.66218 5.328623,9.30382 0.60235,0.64164 2.430477,2.96661 4.062503,5.16661 11.668986,15.72999 34.488133,28.19635 54.951863,30.02083 12.18868,1.0867 14.64704,1.63604 16.9745,3.79305 1.29737,1.20237 2.34227,2.41112 2.322,2.68612 -0.0786,1.0668 1.42038,16.66911 1.89238,19.69675 0.58137,3.72909 -1.75893,8.92842 -4.34709,9.65772 -3.70317,1.0435 -7.87582,1.69903 -8.30917,1.3054 z"
         id="path1008"
         inkscape:connector-curvature="0"
         sodipodi:nodetypes="cccsscsccsccsscsssssscsccssssccccc" />
      <circle
         style="opacity:1;fill:none;fill-opacity:0.31629393;stroke:#ffffff;stroke-width:9;stroke-linecap:butt;stroke-linejoin:round;stroke-miterlimit:4;stroke-dasharray:none;stroke-dashoffset:0;stroke-opacity:1;paint-order:normal"
         id="circle1010"
         cx="145"
         cy="152"
         r="16.255976" />
    </g>
  </g>
</svg>
